<svg xmlns="http://www.w3.org/2000/svg" xmlns:xlink="http://www.w3.org/1999/xlink" width="320" height="240" version="1.0"><g clip-path="url(#06d3309dc9)"><path fill="#004aad" d="M 114.980469 187.542969 C 114.980469 188.316406 114.941406 189.089844 114.867188 189.859375 C 114.789062 190.628906 114.675781 191.394531 114.523438 192.152344 C 114.375 192.910156 114.1875 193.660156 113.960938 194.402344 C 113.738281 195.140625 113.476562 195.871094 113.179688 196.585938 C 112.882812 197.300781 112.554688 197.996094 112.1875 198.679688 C 111.824219 199.363281 111.425781 200.027344 110.996094 200.667969 C 110.566406 201.3125 110.105469 201.933594 109.617188 202.53125 C 109.125 203.128906 108.605469 203.703125 108.058594 204.25 C 107.511719 204.796875 106.941406 205.316406 106.339844 205.804688 C 105.742188 206.296875 105.121094 206.757812 104.480469 207.1875 C 103.835938 207.617188 103.171875 208.015625 102.492188 208.378906 C 101.808594 208.742188 101.109375 209.074219 100.394531 209.371094 C 99.679688 209.667969 98.953125 209.925781 98.210938 210.152344 C 97.472656 210.375 96.722656 210.5625 95.964844 210.714844 C 95.203125 210.867188 94.441406 210.980469 93.667969 211.054688 C 92.898438 211.128906 92.128906 211.167969 91.355469 211.167969 C 90.582031 211.167969 89.808594 211.128906 89.039062 211.054688 C 88.269531 210.980469 87.503906 210.867188 86.746094 210.714844 C 85.984375 210.5625 85.238281 210.375 84.496094 210.152344 C 83.753906 209.925781 83.027344 209.667969 82.3125 209.371094 C 81.597656 209.074219 80.898438 208.742188 80.21875 208.378906 C 79.535156 208.015625 78.871094 207.617188 78.230469 207.1875 C 77.585938 206.757812 76.964844 206.296875 76.367188 205.804688 C 75.769531 205.316406 75.195312 204.796875 74.648438 204.25 C 74.101562 203.703125 73.582031 203.128906 73.089844 202.53125 C 72.601562 201.933594 72.140625 201.3125 71.710938 200.667969 C 71.28125 200.027344 70.882812 199.363281 70.519531 198.679688 C 70.152344 197.996094 69.824219 197.300781 69.527344 196.585938 C 69.230469 195.871094 68.972656 195.140625 68.746094 194.402344 C 68.523438 193.660156 68.332031 192.910156 68.183594 192.152344 C 68.03125 191.394531 67.917969 190.628906 67.84375 189.859375 C 67.765625 189.089844 67.730469 188.316406 67.730469 187.542969 C 67.730469 186.769531 67.765625 185.996094 67.84375 185.226562 C 67.917969 184.457031 68.03125 183.695312 68.183594 182.933594 C 68.332031 182.175781 68.523438 181.425781 68.746094 180.683594 C 68.972656 179.945312 69.230469 179.21875 69.527344 178.503906 C 69.824219 177.789062 70.152344 177.089844 70.519531 176.40625 C 70.882812 175.722656 71.28125 175.0625 71.710938 174.417969 C 72.140625 173.773438 72.601562 173.152344 73.089844 172.554688 C 73.582031 171.957031 74.101562 171.386719 74.648438 170.839844 C 75.195312 170.289062 75.769531 169.773438 76.367188 169.28125 C 76.964844 168.789062 77.585938 168.328125 78.230469 167.898438 C 78.871094 167.46875 79.535156 167.074219 80.21875 166.707031 C 80.898438 166.34375 81.597656 166.011719 82.3125 165.71875 C 83.027344 165.421875 83.753906 165.160156 84.496094 164.9375 C 85.238281 164.710938 85.984375 164.523438 86.746094 164.371094 C 87.503906 164.222656 88.269531 164.109375 89.039062 164.03125 C 89.808594 163.957031 90.582031 163.917969 91.355469 163.917969 C 92.128906 163.917969 92.898438 163.957031 93.667969 164.03125 C 94.441406 164.109375 95.203125 164.222656 95.964844 164.371094 C 96.722656 164.523438 97.472656 164.710938 98.210938 164.9375 C 98.953125 165.160156 99.679688 165.421875 100.394531 165.71875 C 101.109375 166.011719 101.808594 166.34375 102.492188 166.707031 C 103.171875 167.074219 103.835938 167.46875 104.480469 167.898438 C 105.121094 168.328125 105.742188 168.789062 106.339844 169.28125 C 106.941406 169.773438 107.511719 170.289062 108.058594 170.839844 C 108.605469 171.386719 109.125 171.957031 109.617188 172.554688 C 110.105469 173.152344 110.566406 173.773438 110.996094 174.417969 C 111.425781 175.0625 111.824219 175.722656 112.1875 176.40625 C 112.554688 177.089844 112.882812 177.789062 113.179688 178.503906 C 113.476562 179.21875 113.738281 179.945312 113.960938 180.683594 C 114.1875 181.425781 114.375 182.175781 114.523438 182.933594 C 114.675781 183.695312 114.789062 184.457031 114.867188 185.226562 C 114.941406 185.996094 114.980469 186.769531 114.980469 187.542969 Z M 114.980469 187.542969 " fill-opacity="1" fill-rule="nonzero"/></g><path fill="#ffffff" d="M 85.496094 203.835938 L 72.613281 190.953125 L 77.746094 185.820312 L 85.496094 193.566406 L 104.960938 174.101562 L 110.09375 179.234375 Z M 85.496094 203.835938 " fill-opacity="1" fill-rule="nonzero"/><g fill="#5271ff" fill-opacity="1"><g transform="translate(122.517044, 204.531491)"><g><path d="M 11.6875 0 L 6.84375 0 L 6.84375 -18.8125 L 0.640625 -18.8125 L 0.640625 -22.84375 L 17.890625 -22.84375 L 17.890625 -18.8125 L 11.6875 -18.8125 Z M 11.6875 0 "/></g></g></g><g fill="#5271ff" fill-opacity="1"><g transform="translate(141.043769, 204.531491)"><g><path d="M 9.65625 -17.828125 C 12 -17.828125 13.796875 -17.316406 15.046875 -16.296875 C 16.296875 -15.273438 16.921875 -13.722656 16.921875 -11.640625 L 16.921875 0 L 13.59375 0 L 12.671875 -2.375 L 12.546875 -2.375 C 12.046875 -1.75 11.535156 -1.238281 11.015625 -0.84375 C 10.492188 -0.445312 9.894531 -0.15625 9.21875 0.03125 C 8.539062 0.21875 7.71875 0.3125 6.75 0.3125 C 5.71875 0.3125 4.789062 0.113281 3.96875 -0.28125 C 3.15625 -0.675781 2.515625 -1.28125 2.046875 -2.09375 C 1.578125 -2.914062 1.34375 -3.957031 1.34375 -5.21875 C 1.34375 -7.070312 1.992188 -8.4375 3.296875 -9.3125 C 4.597656 -10.195312 6.550781 -10.6875 9.15625 -10.78125 L 12.1875 -10.875 L 12.1875 -11.640625 C 12.1875 -12.554688 11.945312 -13.226562 11.46875 -13.65625 C 10.988281 -14.082031 10.320312 -14.296875 9.46875 -14.296875 C 8.625 -14.296875 7.796875 -14.175781 6.984375 -13.9375 C 6.171875 -13.695312 5.359375 -13.394531 4.546875 -13.03125 L 2.96875 -16.25 C 3.894531 -16.738281 4.929688 -17.125 6.078125 -17.40625 C 7.234375 -17.6875 8.425781 -17.828125 9.65625 -17.828125 Z M 12.1875 -8.09375 L 10.34375 -8.03125 C 8.800781 -7.988281 7.726562 -7.710938 7.125 -7.203125 C 6.53125 -6.691406 6.234375 -6.019531 6.234375 -5.1875 C 6.234375 -4.457031 6.445312 -3.9375 6.875 -3.625 C 7.300781 -3.320312 7.859375 -3.171875 8.546875 -3.171875 C 9.566406 -3.171875 10.425781 -3.472656 11.125 -4.078125 C 11.832031 -4.679688 12.1875 -5.539062 12.1875 -6.65625 Z M 12.1875 -8.09375 "/></g></g></g><g fill="#5271ff" fill-opacity="1"><g transform="translate(160.367174, 204.531491)"><g><path d="M 14.6875 -5.1875 C 14.6875 -4 14.40625 -2.992188 13.84375 -2.171875 C 13.289062 -1.359375 12.460938 -0.738281 11.359375 -0.3125 C 10.253906 0.101562 8.878906 0.3125 7.234375 0.3125 C 6.015625 0.3125 4.96875 0.234375 4.09375 0.078125 C 3.226562 -0.078125 2.351562 -0.335938 1.46875 -0.703125 L 1.46875 -4.640625 C 2.414062 -4.210938 3.429688 -3.859375 4.515625 -3.578125 C 5.609375 -3.304688 6.566406 -3.171875 7.390625 -3.171875 C 8.316406 -3.171875 8.976562 -3.304688 9.375 -3.578125 C 9.78125 -3.859375 9.984375 -4.222656 9.984375 -4.671875 C 9.984375 -4.960938 9.898438 -5.222656 9.734375 -5.453125 C 9.578125 -5.691406 9.234375 -5.957031 8.703125 -6.25 C 8.171875 -6.550781 7.335938 -6.941406 6.203125 -7.421875 C 5.109375 -7.878906 4.207031 -8.34375 3.5 -8.8125 C 2.800781 -9.28125 2.28125 -9.832031 1.9375 -10.46875 C 1.601562 -11.113281 1.4375 -11.929688 1.4375 -12.921875 C 1.4375 -14.535156 2.0625 -15.75 3.3125 -16.5625 C 4.570312 -17.382812 6.253906 -17.796875 8.359375 -17.796875 C 9.441406 -17.796875 10.472656 -17.6875 11.453125 -17.46875 C 12.441406 -17.25 13.457031 -16.898438 14.5 -16.421875 L 13.0625 -12.984375 C 12.195312 -13.359375 11.378906 -13.664062 10.609375 -13.90625 C 9.847656 -14.144531 9.070312 -14.265625 8.28125 -14.265625 C 7.582031 -14.265625 7.054688 -14.171875 6.703125 -13.984375 C 6.347656 -13.796875 6.171875 -13.507812 6.171875 -13.125 C 6.171875 -12.84375 6.257812 -12.59375 6.4375 -12.375 C 6.625 -12.15625 6.976562 -11.910156 7.5 -11.640625 C 8.03125 -11.378906 8.804688 -11.039062 9.828125 -10.625 C 10.816406 -10.21875 11.675781 -9.789062 12.40625 -9.34375 C 13.132812 -8.90625 13.695312 -8.359375 14.09375 -7.703125 C 14.488281 -7.054688 14.6875 -6.21875 14.6875 -5.1875 Z M 14.6875 -5.1875 "/></g></g></g><g fill="#5271ff" fill-opacity="1"><g transform="translate(176.26954, 204.531491)"><g><path d="M 7.265625 -24.3125 L 7.265625 -13.4375 C 7.265625 -12.78125 7.238281 -12.125 7.1875 -11.46875 C 7.132812 -10.8125 7.078125 -10.15625 7.015625 -9.5 L 7.078125 -9.5 C 7.398438 -9.957031 7.726562 -10.410156 8.0625 -10.859375 C 8.40625 -11.304688 8.769531 -11.738281 9.15625 -12.15625 L 14.046875 -17.46875 L 19.421875 -17.46875 L 12.484375 -9.890625 L 19.84375 0 L 14.34375 0 L 9.3125 -7.078125 L 7.265625 -5.4375 L 7.265625 0 L 2.5 0 L 2.5 -24.3125 Z M 7.265625 -24.3125 "/></g></g></g><g fill="#5271ff" fill-opacity="1"><g transform="translate(196.108444, 204.531491)"><g><path d="M 16.03125 0 L 2.875 0 L 2.875 -22.84375 L 16.03125 -22.84375 L 16.03125 -18.875 L 7.71875 -18.875 L 7.71875 -13.859375 L 15.453125 -13.859375 L 15.453125 -9.890625 L 7.71875 -9.890625 L 7.71875 -4 L 16.03125 -4 Z M 16.03125 0 "/></g></g></g><g fill="#5271ff" fill-opacity="1"><g transform="translate(214.025942, 204.531491)"><g><path d="M 9.65625 -17.828125 C 12 -17.828125 13.796875 -17.316406 15.046875 -16.296875 C 16.296875 -15.273438 16.921875 -13.722656 16.921875 -11.640625 L 16.921875 0 L 13.59375 0 L 12.671875 -2.375 L 12.546875 -2.375 C 12.046875 -1.75 11.535156 -1.238281 11.015625 -0.84375 C 10.492188 -0.445312 9.894531 -0.15625 9.21875 0.03125 C 8.539062 0.21875 7.71875 0.3125 6.75 0.3125 C 5.71875 0.3125 4.789062 0.113281 3.96875 -0.28125 C 3.15625 -0.675781 2.515625 -1.28125 2.046875 -2.09375 C 1.578125 -2.914062 1.34375 -3.957031 1.34375 -5.21875 C 1.34375 -7.070312 1.992188 -8.4375 3.296875 -9.3125 C 4.597656 -10.195312 6.550781 -10.6875 9.15625 -10.78125 L 12.1875 -10.875 L 12.1875 -11.640625 C 12.1875 -12.554688 11.945312 -13.226562 11.46875 -13.65625 C 10.988281 -14.082031 10.320312 -14.296875 9.46875 -14.296875 C 8.625 -14.296875 7.796875 -14.175781 6.984375 -13.9375 C 6.171875 -13.695312 5.359375 -13.394531 4.546875 -13.03125 L 2.96875 -16.25 C 3.894531 -16.738281 4.929688 -17.125 6.078125 -17.40625 C 7.234375 -17.6875 8.425781 -17.828125 9.65625 -17.828125 Z M 12.1875 -8.09375 L 10.34375 -8.03125 C 8.800781 -7.988281 7.726562 -7.710938 7.125 -7.203125 C 6.53125 -6.691406 6.234375 -6.019531 6.234375 -5.1875 C 6.234375 -4.457031 6.445312 -3.9375 6.875 -3.625 C 7.300781 -3.320312 7.859375 -3.171875 8.546875 -3.171875 C 9.566406 -3.171875 10.425781 -3.472656 11.125 -4.078125 C 11.832031 -4.679688 12.1875 -5.539062 12.1875 -6.65625 Z M 12.1875 -8.09375 "/></g></g></g><g fill="#5271ff" fill-opacity="1"><g transform="translate(233.349347, 204.531491)"><g><path d="M 14.6875 -5.1875 C 14.6875 -4 14.40625 -2.992188 13.84375 -2.171875 C 13.289062 -1.359375 12.460938 -0.738281 11.359375 -0.3125 C 10.253906 0.101562 8.878906 0.3125 7.234375 0.3125 C 6.015625 0.3125 4.96875 0.234375 4.09375 0.078125 C 3.226562 -0.078125 2.351562 -0.335938 1.46875 -0.703125 L 1.46875 -4.640625 C 2.414062 -4.210938 3.429688 -3.859375 4.515625 -3.578125 C 5.609375 -3.304688 6.566406 -3.171875 7.390625 -3.171875 C 8.316406 -3.171875 8.976562 -3.304688 9.375 -3.578125 C 9.78125 -3.859375 9.984375 -4.222656 9.984375 -4.671875 C 9.984375 -4.960938 9.898438 -5.222656 9.734375 -5.453125 C 9.578125 -5.691406 9.234375 -5.957031 8.703125 -6.25 C 8.171875 -6.550781 7.335938 -6.941406 6.203125 -7.421875 C 5.109375 -7.878906 4.207031 -8.34375 3.5 -8.8125 C 2.800781 -9.28125 2.28125 -9.832031 1.9375 -10.46875 C 1.601562 -11.113281 1.4375 -11.929688 1.4375 -12.921875 C 1.4375 -14.535156 2.0625 -15.75 3.3125 -16.5625 C 4.570312 -17.382812 6.253906 -17.796875 8.359375 -17.796875 C 9.441406 -17.796875 10.472656 -17.6875 11.453125 -17.46875 C 12.441406 -17.25 13.457031 -16.898438 14.5 -16.421875 L 13.0625 -12.984375 C 12.195312 -13.359375 11.378906 -13.664062 10.609375 -13.90625 C 9.847656 -14.144531 9.070312 -14.265625 8.28125 -14.265625 C 7.582031 -14.265625 7.054688 -14.171875 6.703125 -13.984375 C 6.347656 -13.796875 6.171875 -13.507812 6.171875 -13.125 C 6.171875 -12.84375 6.257812 -12.59375 6.4375 -12.375 C 6.625 -12.15625 6.976562 -11.910156 7.5 -11.640625 C 8.03125 -11.378906 8.804688 -11.039062 9.828125 -10.625 C 10.816406 -10.21875 11.675781 -9.789062 12.40625 -9.34375 C 13.132812 -8.90625 13.695312 -8.359375 14.09375 -7.703125 C 14.488281 -7.054688 14.6875 -6.21875 14.6875 -5.1875 Z M 14.6875 -5.1875 "/></g></g></g><g fill="#5271ff" fill-opacity="1"><g transform="translate(249.251713, 204.531491)"><g><path d="M 0 -17.46875 L 5.21875 -17.46875 L 8.515625 -7.640625 C 8.617188 -7.328125 8.707031 -7.007812 8.78125 -6.6875 C 8.851562 -6.363281 8.914062 -6.03125 8.96875 -5.6875 C 9.019531 -5.34375 9.0625 -4.984375 9.09375 -4.609375 L 9.1875 -4.609375 C 9.25 -5.171875 9.332031 -5.695312 9.4375 -6.1875 C 9.550781 -6.675781 9.691406 -7.160156 9.859375 -7.640625 L 13.09375 -17.46875 L 18.203125 -17.46875 L 10.8125 2.234375 C 10.363281 3.441406 9.78125 4.445312 9.0625 5.25 C 8.34375 6.0625 7.515625 6.671875 6.578125 7.078125 C 5.648438 7.484375 4.628906 7.6875 3.515625 7.6875 C 2.972656 7.6875 2.503906 7.65625 2.109375 7.59375 C 1.710938 7.539062 1.375 7.484375 1.09375 7.421875 L 1.09375 3.640625 C 1.3125 3.691406 1.585938 3.738281 1.921875 3.78125 C 2.253906 3.820312 2.601562 3.84375 2.96875 3.84375 C 3.632812 3.84375 4.207031 3.703125 4.6875 3.421875 C 5.164062 3.140625 5.566406 2.757812 5.890625 2.28125 C 6.210938 1.8125 6.46875 1.296875 6.65625 0.734375 L 6.9375 -0.125 Z M 0 -17.46875 "/></g></g></g><g fill="#737373" fill-opacity="1"><g transform="translate(267.485787, 204.521499)"><g><path d="M 1.828125 -2.234375 C 1.828125 -3.203125 2.09375 -3.882812 2.625 -4.28125 C 3.15625 -4.675781 3.800781 -4.875 4.5625 -4.875 C 5.300781 -4.875 5.9375 -4.675781 6.46875 -4.28125 C 7 -3.882812 7.265625 -3.203125 7.265625 -2.234375 C 7.265625 -1.296875 7 -0.617188 6.46875 -0.203125 C 5.9375 0.210938 5.300781 0.421875 4.5625 0.421875 C 3.800781 0.421875 3.15625 0.210938 2.625 -0.203125 C 2.09375 -0.617188 1.828125 -1.296875 1.828125 -2.234375 Z M 1.828125 -2.234375 "/></g></g></g><g fill="#737373" fill-opacity="1"><g transform="translate(276.578484, 204.521499)"><g><path d="M 7.234375 -17.40625 L 7.234375 0 L 2.484375 0 L 2.484375 -17.40625 Z M 4.875 -24.234375 C 5.582031 -24.234375 6.1875 -24.066406 6.6875 -23.734375 C 7.195312 -23.410156 7.453125 -22.800781 7.453125 -21.90625 C 7.453125 -21.019531 7.195312 -20.410156 6.6875 -20.078125 C 6.1875 -19.742188 5.582031 -19.578125 4.875 -19.578125 C 4.15625 -19.578125 3.539062 -19.742188 3.03125 -20.078125 C 2.53125 -20.410156 2.28125 -21.019531 2.28125 -21.90625 C 2.28125 -22.800781 2.53125 -23.410156 3.03125 -23.734375 C 3.539062 -24.066406 4.15625 -24.234375 4.875 -24.234375 Z M 4.875 -24.234375 "/></g></g></g><g fill="#737373" fill-opacity="1"><g transform="translate(286.309543, 204.521499)"><g><path d="M 12.375 -17.734375 C 14.238281 -17.734375 15.734375 -17.226562 16.859375 -16.21875 C 17.992188 -15.207031 18.5625 -13.585938 18.5625 -11.359375 L 18.5625 0 L 13.8125 0 L 13.8125 -10.171875 C 13.8125 -11.410156 13.582031 -12.347656 13.125 -12.984375 C 12.675781 -13.617188 11.972656 -13.9375 11.015625 -13.9375 C 9.554688 -13.9375 8.5625 -13.441406 8.03125 -12.453125 C 7.5 -11.472656 7.234375 -10.050781 7.234375 -8.1875 L 7.234375 0 L 2.484375 0 L 2.484375 -17.40625 L 6.125 -17.40625 L 6.765625 -15.1875 L 7.015625 -15.1875 C 7.390625 -15.78125 7.851562 -16.265625 8.40625 -16.640625 C 8.96875 -17.015625 9.585938 -17.289062 10.265625 -17.46875 C 10.953125 -17.644531 11.65625 -17.734375 12.375 -17.734375 Z M 12.375 -17.734375 "/></g></g></g></svg>