<svg xmlns="http://www.w3.org/2000/svg" xmlns:xlink="http://www.w3.org/1999/xlink" width="250" zoomAndPan="magnify" viewBox="0 0 187.5 74.999997" height="100" preserveAspectRatio="xMidYMid meet" version="1.0"><defs><clipPath id="2e56c5d00e"><path d="M 0 0.101562 L 187 0.101562 L 187 74.898438 L 0 74.898438 Z M 0 0.101562 " clip-rule="nonzero"/></clipPath><clipPath id="ea6e03b703"><path d="M 13.253906 17.226562 L 46.992188 17.226562 L 46.992188 50.964844 L 13.253906 50.964844 Z M 13.253906 17.226562 " clip-rule="nonzero"/></clipPath></defs><g clip-path="url(#2e56c5d00e)"><path fill="#ffffff" d="M 0 0.101562 L 187.5 0.101562 L 187.5 82.601562 L 0 82.601562 Z M 0 0.101562 " fill-opacity="1" fill-rule="nonzero"/><path fill="#ffffff" d="M 0 0.101562 L 187.5 0.101562 L 187.5 75.101562 L 0 75.101562 Z M 0 0.101562 " fill-opacity="1" fill-rule="nonzero"/><path fill="#ffffff" d="M 0 0.101562 L 187.5 0.101562 L 187.5 75.101562 L 0 75.101562 Z M 0 0.101562 " fill-opacity="1" fill-rule="nonzero"/></g><g clip-path="url(#ea6e03b703)"><path fill="#004aad" d="M 46.992188 34.097656 C 46.992188 34.648438 46.964844 35.199219 46.910156 35.75 C 46.855469 36.300781 46.773438 36.847656 46.664062 37.386719 C 46.558594 37.929688 46.425781 38.464844 46.261719 38.996094 C 46.105469 39.519531 45.917969 40.042969 45.707031 40.554688 C 45.492188 41.0625 45.257812 41.558594 44.996094 42.046875 C 44.738281 42.535156 44.453125 43.011719 44.144531 43.46875 C 43.839844 43.929688 43.511719 44.371094 43.160156 44.796875 C 42.808594 45.226562 42.4375 45.636719 42.050781 46.027344 C 41.660156 46.414062 41.25 46.785156 40.820312 47.136719 C 40.394531 47.488281 39.953125 47.816406 39.492188 48.121094 C 39.035156 48.429688 38.558594 48.714844 38.074219 48.972656 C 37.585938 49.234375 37.085938 49.46875 36.578125 49.683594 C 36.066406 49.894531 35.546875 50.078125 35.019531 50.238281 C 34.492188 50.398438 33.953125 50.53125 33.414062 50.640625 C 32.871094 50.75 32.328125 50.832031 31.773438 50.882812 C 31.222656 50.9375 30.675781 50.964844 30.121094 50.964844 C 29.570312 50.964844 29.019531 50.9375 28.46875 50.882812 C 27.917969 50.832031 27.371094 50.75 26.832031 50.640625 C 26.289062 50.53125 25.753906 50.398438 25.226562 50.238281 C 24.695312 50.078125 24.175781 49.894531 23.667969 49.683594 C 23.15625 49.46875 22.65625 49.234375 22.171875 48.972656 C 21.683594 48.714844 21.210938 48.429688 20.75 48.121094 C 20.292969 47.816406 19.847656 47.488281 19.421875 47.136719 C 18.996094 46.785156 18.585938 46.414062 18.195312 46.027344 C 17.804688 45.636719 17.433594 45.226562 17.082031 44.796875 C 16.734375 44.371094 16.402344 43.929688 16.097656 43.46875 C 15.789062 43.011719 15.503906 42.535156 15.246094 42.046875 C 14.984375 41.558594 14.75 41.0625 14.539062 40.554688 C 14.324219 40.042969 14.140625 39.519531 13.980469 38.996094 C 13.820312 38.464844 13.683594 37.929688 13.578125 37.386719 C 13.46875 36.847656 13.386719 36.300781 13.335938 35.75 C 13.28125 35.199219 13.253906 34.648438 13.253906 34.097656 C 13.253906 33.542969 13.28125 32.992188 13.335938 32.441406 C 13.386719 31.894531 13.46875 31.347656 13.578125 30.804688 C 13.683594 30.265625 13.820312 29.730469 13.980469 29.199219 C 14.140625 28.671875 14.324219 28.152344 14.539062 27.644531 C 14.75 27.132812 14.984375 26.632812 15.246094 26.144531 C 15.503906 25.65625 15.789062 25.1875 16.097656 24.726562 C 16.402344 24.265625 16.734375 23.820312 17.082031 23.394531 C 17.433594 22.96875 17.804688 22.5625 18.195312 22.171875 C 18.585938 21.777344 18.996094 21.410156 19.421875 21.058594 C 19.847656 20.707031 20.292969 20.378906 20.75 20.070312 C 21.210938 19.761719 21.683594 19.480469 22.171875 19.21875 C 22.65625 18.960938 23.15625 18.722656 23.667969 18.515625 C 24.175781 18.300781 24.695312 18.117188 25.226562 17.957031 C 25.753906 17.792969 26.289062 17.660156 26.832031 17.550781 C 27.371094 17.445312 27.917969 17.363281 28.46875 17.308594 C 29.019531 17.257812 29.570312 17.226562 30.121094 17.226562 C 30.675781 17.226562 31.222656 17.257812 31.773438 17.308594 C 32.328125 17.363281 32.871094 17.445312 33.414062 17.550781 C 33.953125 17.660156 34.492188 17.792969 35.019531 17.957031 C 35.546875 18.117188 36.066406 18.300781 36.578125 18.515625 C 37.085938 18.722656 37.585938 18.960938 38.074219 19.21875 C 38.558594 19.480469 39.035156 19.761719 39.492188 20.070312 C 39.953125 20.378906 40.394531 20.707031 40.820312 21.058594 C 41.25 21.410156 41.660156 21.777344 42.050781 22.171875 C 42.4375 22.5625 42.808594 22.96875 43.160156 23.394531 C 43.511719 23.820312 43.839844 24.265625 44.144531 24.726562 C 44.453125 25.1875 44.738281 25.65625 44.996094 26.144531 C 45.257812 26.632812 45.492188 27.132812 45.707031 27.644531 C 45.917969 28.152344 46.105469 28.671875 46.261719 29.199219 C 46.425781 29.730469 46.558594 30.265625 46.664062 30.804688 C 46.773438 31.347656 46.855469 31.894531 46.910156 32.441406 C 46.964844 32.992188 46.992188 33.542969 46.992188 34.097656 Z M 46.992188 34.097656 " fill-opacity="1" fill-rule="nonzero"/></g><path fill="#ffffff" d="M 25.9375 45.730469 L 16.742188 36.53125 L 20.40625 32.867188 L 25.9375 38.398438 L 39.835938 24.5 L 43.503906 28.164062 Z M 25.9375 45.730469 " fill-opacity="1" fill-rule="nonzero"/><path fill="#5271ff" d="M 60.71875 46.226562 L 57.257812 46.226562 L 57.257812 32.792969 L 52.828125 32.792969 L 52.828125 29.914062 L 65.144531 29.914062 L 65.144531 32.792969 L 60.71875 32.792969 Z M 60.71875 46.226562 " fill-opacity="1" fill-rule="nonzero"/><path fill="#5271ff" d="M 72.496094 33.496094 C 74.167969 33.496094 75.453125 33.863281 76.34375 34.589844 C 77.238281 35.320312 77.683594 36.429688 77.683594 37.914062 L 77.683594 46.226562 L 75.304688 46.226562 L 74.648438 44.53125 L 74.558594 44.53125 C 74.203125 44.976562 73.835938 45.34375 73.464844 45.625 C 73.09375 45.90625 72.664062 46.113281 72.183594 46.25 C 71.699219 46.382812 71.113281 46.449219 70.421875 46.449219 C 69.683594 46.449219 69.019531 46.308594 68.433594 46.023438 C 67.855469 45.742188 67.398438 45.3125 67.0625 44.730469 C 66.726562 44.144531 66.558594 43.402344 66.558594 42.5 C 66.558594 41.179688 67.023438 40.203125 67.953125 39.578125 C 68.882812 38.945312 70.277344 38.59375 72.136719 38.527344 L 74.300781 38.460938 L 74.300781 37.914062 C 74.300781 37.261719 74.128906 36.78125 73.789062 36.476562 C 73.445312 36.171875 72.96875 36.019531 72.359375 36.019531 C 71.757812 36.019531 71.167969 36.105469 70.585938 36.273438 C 70.007812 36.449219 69.425781 36.664062 68.847656 36.921875 L 67.71875 34.625 C 68.382812 34.273438 69.121094 34 69.941406 33.796875 C 70.765625 33.597656 71.617188 33.496094 72.496094 33.496094 Z M 74.300781 40.445312 L 72.984375 40.492188 C 71.882812 40.523438 71.117188 40.71875 70.6875 41.082031 C 70.265625 41.449219 70.050781 41.929688 70.050781 42.523438 C 70.050781 43.042969 70.203125 43.414062 70.507812 43.636719 C 70.8125 43.855469 71.210938 43.960938 71.703125 43.960938 C 72.429688 43.960938 73.042969 43.746094 73.542969 43.3125 C 74.046875 42.886719 74.300781 42.269531 74.300781 41.472656 Z M 74.300781 40.445312 " fill-opacity="1" fill-rule="nonzero"/><path fill="#5271ff" d="M 89.882812 42.523438 C 89.882812 43.371094 89.683594 44.089844 89.28125 44.675781 C 88.886719 45.253906 88.292969 45.699219 87.507812 46.003906 C 86.71875 46.296875 85.738281 46.449219 84.5625 46.449219 C 83.691406 46.449219 82.945312 46.394531 82.320312 46.28125 C 81.699219 46.171875 81.074219 45.984375 80.445312 45.722656 L 80.445312 42.914062 C 81.121094 43.21875 81.847656 43.46875 82.621094 43.671875 C 83.402344 43.867188 84.085938 43.960938 84.675781 43.960938 C 85.335938 43.960938 85.804688 43.867188 86.089844 43.671875 C 86.382812 43.46875 86.527344 43.210938 86.527344 42.890625 C 86.527344 42.683594 86.464844 42.496094 86.347656 42.332031 C 86.234375 42.164062 85.992188 41.972656 85.609375 41.761719 C 85.230469 41.550781 84.636719 41.269531 83.824219 40.925781 C 83.046875 40.601562 82.402344 40.269531 81.894531 39.933594 C 81.398438 39.597656 81.027344 39.207031 80.78125 38.75 C 80.539062 38.292969 80.421875 37.707031 80.421875 37 C 80.421875 35.847656 80.871094 34.980469 81.761719 34.402344 C 82.660156 33.816406 83.863281 33.519531 85.367188 33.519531 C 86.136719 33.519531 86.875 33.597656 87.574219 33.753906 C 88.28125 33.910156 89.003906 34.160156 89.75 34.5 L 88.722656 36.957031 C 88.105469 36.6875 87.523438 36.46875 86.972656 36.296875 C 86.429688 36.125 85.875 36.039062 85.308594 36.039062 C 84.8125 36.039062 84.433594 36.105469 84.183594 36.242188 C 83.929688 36.375 83.804688 36.582031 83.804688 36.855469 C 83.804688 37.054688 83.863281 37.234375 83.992188 37.390625 C 84.128906 37.546875 84.378906 37.722656 84.753906 37.914062 C 85.132812 38.101562 85.683594 38.34375 86.414062 38.640625 C 87.121094 38.929688 87.734375 39.238281 88.253906 39.554688 C 88.773438 39.867188 89.175781 40.257812 89.460938 40.726562 C 89.742188 41.1875 89.882812 41.785156 89.882812 42.523438 Z M 89.882812 42.523438 " fill-opacity="1" fill-rule="nonzero"/><path fill="#5271ff" d="M 95.941406 28.867188 L 95.941406 36.632812 C 95.941406 37.101562 95.921875 37.570312 95.882812 38.039062 C 95.84375 38.507812 95.804688 38.972656 95.761719 39.441406 L 95.804688 39.441406 C 96.035156 39.117188 96.269531 38.792969 96.507812 38.472656 C 96.753906 38.15625 97.011719 37.84375 97.289062 37.546875 L 100.78125 33.753906 L 104.617188 33.753906 L 99.664062 39.164062 L 104.921875 46.226562 L 100.992188 46.226562 L 97.402344 41.171875 L 95.941406 42.34375 L 95.941406 46.226562 L 92.535156 46.226562 L 92.535156 28.867188 Z M 95.941406 28.867188 " fill-opacity="1" fill-rule="nonzero"/><path fill="#5271ff" d="M 116.363281 46.226562 L 106.96875 46.226562 L 106.96875 29.914062 L 116.363281 29.914062 L 116.363281 32.75 L 110.425781 32.75 L 110.425781 36.332031 L 115.949219 36.332031 L 115.949219 39.164062 L 110.425781 39.164062 L 110.425781 43.371094 L 116.363281 43.371094 Z M 116.363281 46.226562 " fill-opacity="1" fill-rule="nonzero"/><path fill="#5271ff" d="M 124.605469 33.496094 C 126.277344 33.496094 127.5625 33.863281 128.453125 34.589844 C 129.34375 35.320312 129.792969 36.429688 129.792969 37.914062 L 129.792969 46.226562 L 127.414062 46.226562 L 126.757812 44.53125 L 126.667969 44.53125 C 126.3125 44.976562 125.945312 45.34375 125.574219 45.625 C 125.199219 45.90625 124.773438 46.113281 124.292969 46.25 C 123.804688 46.382812 123.222656 46.449219 122.527344 46.449219 C 121.792969 46.449219 121.128906 46.308594 120.542969 46.023438 C 119.964844 45.742188 119.503906 45.3125 119.171875 44.730469 C 118.835938 44.144531 118.667969 43.402344 118.667969 42.5 C 118.667969 41.179688 119.132812 40.203125 120.0625 39.578125 C 120.992188 38.945312 122.386719 38.59375 124.246094 38.527344 L 126.410156 38.460938 L 126.410156 37.914062 C 126.410156 37.261719 126.238281 36.78125 125.898438 36.476562 C 125.554688 36.171875 125.078125 36.019531 124.46875 36.019531 C 123.867188 36.019531 123.277344 36.105469 122.695312 36.273438 C 122.117188 36.449219 121.535156 36.664062 120.957031 36.921875 L 119.828125 34.625 C 120.492188 34.273438 121.230469 34 122.050781 33.796875 C 122.875 33.597656 123.726562 33.496094 124.605469 33.496094 Z M 126.410156 40.445312 L 125.09375 40.492188 C 123.992188 40.523438 123.226562 40.71875 122.796875 41.082031 C 122.371094 41.449219 122.160156 41.929688 122.160156 42.523438 C 122.160156 43.042969 122.3125 43.414062 122.617188 43.636719 C 122.921875 43.855469 123.320312 43.960938 123.8125 43.960938 C 124.539062 43.960938 125.152344 43.746094 125.652344 43.3125 C 126.15625 42.886719 126.410156 42.269531 126.410156 41.472656 Z M 126.410156 40.445312 " fill-opacity="1" fill-rule="nonzero"/><path fill="#5271ff" d="M 141.992188 42.523438 C 141.992188 43.371094 141.792969 44.089844 141.390625 44.675781 C 140.996094 45.253906 140.402344 45.699219 139.617188 46.003906 C 138.828125 46.296875 137.847656 46.449219 136.671875 46.449219 C 135.800781 46.449219 135.054688 46.394531 134.429688 46.28125 C 133.8125 46.171875 133.1875 45.984375 132.554688 45.722656 L 132.554688 42.914062 C 133.230469 43.21875 133.957031 43.46875 134.730469 43.671875 C 135.511719 43.867188 136.195312 43.960938 136.785156 43.960938 C 137.445312 43.960938 137.917969 43.867188 138.199219 43.671875 C 138.492188 43.46875 138.636719 43.210938 138.636719 42.890625 C 138.636719 42.683594 138.574219 42.496094 138.457031 42.332031 C 138.347656 42.164062 138.101562 41.972656 137.722656 41.761719 C 137.339844 41.550781 136.746094 41.269531 135.9375 40.925781 C 135.15625 40.601562 134.511719 40.269531 134.007812 39.933594 C 133.507812 39.597656 133.136719 39.207031 132.890625 38.75 C 132.652344 38.292969 132.535156 37.707031 132.535156 37 C 132.535156 35.847656 132.980469 34.980469 133.871094 34.402344 C 134.769531 33.816406 135.972656 33.519531 137.476562 33.519531 C 138.25 33.519531 138.984375 33.597656 139.683594 33.753906 C 140.390625 33.910156 141.117188 34.160156 141.859375 34.5 L 140.832031 36.957031 C 140.214844 36.6875 139.632812 36.46875 139.082031 36.296875 C 138.539062 36.125 137.984375 36.039062 137.417969 36.039062 C 136.921875 36.039062 136.542969 36.105469 136.292969 36.242188 C 136.039062 36.375 135.914062 36.582031 135.914062 36.855469 C 135.914062 37.054688 135.976562 37.234375 136.101562 37.390625 C 136.238281 37.546875 136.488281 37.722656 136.863281 37.914062 C 137.242188 38.101562 137.792969 38.34375 138.523438 38.640625 C 139.230469 38.929688 139.84375 39.238281 140.363281 39.554688 C 140.882812 39.867188 141.285156 40.257812 141.570312 40.726562 C 141.851562 41.1875 141.992188 41.785156 141.992188 42.523438 Z M 141.992188 42.523438 " fill-opacity="1" fill-rule="nonzero"/><path fill="#5271ff" d="M 142.859375 33.753906 L 146.585938 33.753906 L 148.941406 40.769531 C 149.015625 40.992188 149.078125 41.222656 149.128906 41.453125 C 149.179688 41.683594 149.226562 41.917969 149.265625 42.164062 C 149.300781 42.410156 149.332031 42.667969 149.355469 42.933594 L 149.421875 42.933594 C 149.464844 42.535156 149.523438 42.160156 149.597656 41.808594 C 149.679688 41.460938 149.78125 41.113281 149.902344 40.769531 L 152.210938 33.753906 L 155.859375 33.753906 L 150.582031 47.820312 C 150.261719 48.683594 149.84375 49.398438 149.332031 49.972656 C 148.820312 50.554688 148.226562 50.988281 147.558594 51.28125 C 146.894531 51.570312 146.167969 51.714844 145.371094 51.714844 C 144.984375 51.714844 144.648438 51.691406 144.367188 51.648438 C 144.082031 51.609375 143.84375 51.570312 143.640625 51.523438 L 143.640625 48.824219 C 143.796875 48.863281 143.992188 48.894531 144.234375 48.925781 C 144.46875 48.953125 144.71875 48.96875 144.980469 48.96875 C 145.453125 48.96875 145.863281 48.871094 146.207031 48.667969 C 146.546875 48.46875 146.835938 48.195312 147.066406 47.855469 C 147.296875 47.519531 147.480469 47.152344 147.613281 46.75 L 147.8125 46.136719 Z M 142.859375 33.753906 " fill-opacity="1" fill-rule="nonzero"/><path fill="#737373" d="M 157.183594 44.625 C 157.183594 43.933594 157.375 43.445312 157.753906 43.164062 C 158.132812 42.878906 158.59375 42.738281 159.136719 42.738281 C 159.664062 42.738281 160.121094 42.878906 160.5 43.164062 C 160.878906 43.445312 161.066406 43.933594 161.066406 44.625 C 161.066406 45.292969 160.878906 45.777344 160.5 46.074219 C 160.121094 46.371094 159.664062 46.519531 159.136719 46.519531 C 158.59375 46.519531 158.132812 46.371094 157.753906 46.074219 C 157.375 45.777344 157.183594 45.292969 157.183594 44.625 Z M 157.183594 44.625 " fill-opacity="1" fill-rule="nonzero"/><path fill="#737373" d="M 167.539062 33.789062 L 167.539062 46.21875 L 164.144531 46.21875 L 164.144531 33.789062 Z M 165.851562 28.914062 C 166.355469 28.914062 166.789062 29.035156 167.148438 29.273438 C 167.507812 29.503906 167.691406 29.9375 167.691406 30.578125 C 167.691406 31.210938 167.507812 31.644531 167.148438 31.882812 C 166.789062 32.121094 166.355469 32.238281 165.851562 32.238281 C 165.339844 32.238281 164.898438 32.121094 164.535156 31.882812 C 164.179688 31.644531 164 31.210938 164 30.578125 C 164 29.9375 164.179688 29.503906 164.535156 29.273438 C 164.898438 29.035156 165.339844 28.914062 165.851562 28.914062 Z M 165.851562 28.914062 " fill-opacity="1" fill-rule="nonzero"/><path fill="#737373" d="M 178.15625 33.554688 C 179.488281 33.554688 180.554688 33.917969 181.359375 34.640625 C 182.167969 35.359375 182.574219 36.519531 182.574219 38.109375 L 182.574219 46.21875 L 179.183594 46.21875 L 179.183594 38.957031 C 179.183594 38.070312 179.019531 37.402344 178.691406 36.949219 C 178.371094 36.496094 177.867188 36.269531 177.1875 36.269531 C 176.140625 36.269531 175.433594 36.621094 175.054688 37.328125 C 174.675781 38.027344 174.484375 39.042969 174.484375 40.375 L 174.484375 46.21875 L 171.09375 46.21875 L 171.09375 33.789062 L 173.695312 33.789062 L 174.152344 35.375 L 174.328125 35.375 C 174.597656 34.949219 174.925781 34.605469 175.324219 34.335938 C 175.722656 34.070312 176.164062 33.875 176.648438 33.746094 C 177.140625 33.621094 177.644531 33.554688 178.15625 33.554688 Z M 178.15625 33.554688 " fill-opacity="1" fill-rule="nonzero"/></svg>